<svg width="25" height="25" viewBox="0 0 25 25" fill="none" xmlns="http://www.w3.org/2000/svg">
<path d="M12.4995 22.9169V13.5419M12.4995 22.9169L9.89536 20.8335M12.4995 22.9169L15.1037 20.8335M5.24327 9.49707C4.25808 9.74498 3.39731 10.3441 2.8227 11.1819C2.24809 12.0197 1.99919 13.0385 2.12276 14.0468C2.24633 15.0552 2.73386 15.9838 3.49376 16.658C4.25366 17.3323 5.23362 17.7058 6.24952 17.7085H7.29119" stroke="white" stroke-width="2" stroke-linecap="round" stroke-linejoin="round"/>
<path d="M16.489 7.43577C16.133 6.02595 15.2542 4.80425 14.0308 4.01833C12.8074 3.23241 11.331 2.94108 9.90076 3.20338C8.47054 3.46569 7.19356 4.26201 6.32869 5.43092C5.46381 6.59983 5.07577 8.05387 5.2432 9.49827C5.2432 9.49827 5.40258 10.417 5.72862 10.9379" stroke="white" stroke-width="2" stroke-linecap="round" stroke-linejoin="round"/>
<path d="M17.7077 17.7087C18.4431 17.7082 19.1702 17.5519 19.8409 17.2502C20.5116 16.9485 21.1108 16.5081 21.5991 15.9581C22.0873 15.4081 22.4536 14.761 22.6737 14.0592C22.8938 13.3575 22.9628 12.6171 22.8762 11.8867C22.7896 11.1564 22.5492 10.4527 22.171 9.82193C21.7928 9.19117 21.2853 8.64767 20.6819 8.22718C20.0785 7.8067 19.3929 7.51878 18.6702 7.38237C17.9475 7.24595 17.2041 7.26414 16.4889 7.43574L15.1035 7.81282" stroke="white" stroke-width="2" stroke-linecap="round" stroke-linejoin="round"/>
</svg>
