<svg width="25" height="25" viewBox="0 0 25 25" fill="none" xmlns="http://www.w3.org/2000/svg">
<path d="M22.1424 11.4184C22.6361 12.0643 22.6361 12.9361 22.1424 13.5809C20.5872 15.6111 16.8559 19.7913 12.4997 19.7913C8.14342 19.7913 4.41217 15.6111 2.85696 13.5809C2.61673 13.2717 2.48633 12.8913 2.48633 12.4997C2.48633 12.1081 2.61673 11.7277 2.85696 11.4184C4.41217 9.38822 8.14342 5.20801 12.4997 5.20801C16.8559 5.20801 20.5872 9.38822 22.1424 11.4184V11.4184Z" stroke="white" stroke-width="2" stroke-linecap="round" stroke-linejoin="round"/>
<path d="M12.5 15.625C14.2259 15.625 15.625 14.2259 15.625 12.5C15.625 10.7741 14.2259 9.375 12.5 9.375C10.7741 9.375 9.375 10.7741 9.375 12.5C9.375 14.2259 10.7741 15.625 12.5 15.625Z" stroke="white" stroke-width="2" stroke-linecap="round" stroke-linejoin="round"/>
</svg>
