<svg width="21" height="22" viewBox="0 0 21 22" fill="none" xmlns="http://www.w3.org/2000/svg">
<path d="M6.125 5.75V3.125C6.125 2.89294 6.21719 2.67038 6.38128 2.50628C6.54538 2.34219 6.76793 2.25 7 2.25H14C14.2321 2.25 14.4546 2.34219 14.6187 2.50628C14.7828 2.67038 14.875 2.89294 14.875 3.125V5.75H19.25V7.5H17.5V18.875C17.5 19.1071 17.4078 19.3296 17.2437 19.4937C17.0796 19.6578 16.8571 19.75 16.625 19.75H4.375C4.14294 19.75 3.92038 19.6578 3.75628 19.4937C3.59219 19.3296 3.5 19.1071 3.5 18.875V7.5H1.75V5.75H6.125ZM7.875 4V5.75H13.125V4H7.875Z" fill="white"/>
</svg>
