<svg width="121" height="29" viewBox="0 0 121 29" fill="none" xmlns="http://www.w3.org/2000/svg">
<path d="M39.152 23.24C37.84 23.24 36.632 23.024 35.528 22.592C34.424 22.16 33.464 21.56 32.648 20.792C31.832 20.008 31.2 19.096 30.752 18.056C30.304 17 30.08 15.848 30.08 14.6C30.08 13.352 30.304 12.208 30.752 11.168C31.2 10.112 31.832 9.2 32.648 8.432C33.464 7.648 34.424 7.04 35.528 6.608C36.632 6.176 37.832 5.96 39.128 5.96C40.44 5.96 41.64 6.176 42.728 6.608C43.832 7.04 44.792 7.648 45.608 8.432C46.424 9.2 47.056 10.112 47.504 11.168C47.952 12.208 48.176 13.352 48.176 14.6C48.176 15.848 47.952 17 47.504 18.056C47.056 19.112 46.424 20.024 45.608 20.792C44.792 21.56 43.832 22.16 42.728 22.592C41.64 23.024 40.448 23.24 39.152 23.24ZM39.128 20.504C39.976 20.504 40.76 20.36 41.48 20.072C42.2 19.784 42.824 19.376 43.352 18.848C43.88 18.304 44.288 17.68 44.576 16.976C44.88 16.256 45.032 15.464 45.032 14.6C45.032 13.736 44.88 12.952 44.576 12.248C44.288 11.528 43.88 10.904 43.352 10.376C42.824 9.832 42.2 9.416 41.48 9.128C40.76 8.84 39.976 8.696 39.128 8.696C38.28 8.696 37.496 8.84 36.776 9.128C36.072 9.416 35.448 9.832 34.904 10.376C34.376 10.904 33.96 11.528 33.656 12.248C33.368 12.952 33.224 13.736 33.224 14.6C33.224 15.448 33.368 16.232 33.656 16.952C33.96 17.672 34.376 18.304 34.904 18.848C35.432 19.376 36.056 19.784 36.776 20.072C37.496 20.36 38.28 20.504 39.128 20.504ZM57.4094 23.24C56.3534 23.24 55.4094 23.08 54.5774 22.76C53.7454 22.44 53.0254 21.952 52.4174 21.296C51.8254 20.624 51.3694 19.776 51.0494 18.752C50.7294 17.728 50.5694 16.512 50.5694 15.104C50.5694 14.08 50.6574 13.144 50.8334 12.296C51.0094 11.448 51.2734 10.688 51.6254 10.016C51.9774 9.328 52.4174 8.72 52.9454 8.192C53.4894 7.664 54.1214 7.224 54.8414 6.872C55.5614 6.52 56.3774 6.248 57.2894 6.056L63.2414 4.784L63.6734 7.472L58.2734 8.576C57.9694 8.64 57.6014 8.736 57.1694 8.864C56.7534 8.976 56.3214 9.152 55.8734 9.392C55.4414 9.616 55.0334 9.944 54.6494 10.376C54.2814 10.792 53.9774 11.336 53.7374 12.008C53.5134 12.664 53.4014 13.488 53.4014 14.48C53.4014 14.784 53.4094 15.016 53.4254 15.176C53.4574 15.32 53.4814 15.48 53.4974 15.656C53.5294 15.816 53.5454 16.056 53.5454 16.376L52.4174 15.2C52.7374 14.384 53.1774 13.688 53.7374 13.112C54.3134 12.52 54.9774 12.072 55.7294 11.768C56.4974 11.448 57.3294 11.288 58.2254 11.288C59.4254 11.288 60.4894 11.536 61.4174 12.032C62.3454 12.528 63.0734 13.224 63.6014 14.12C64.1294 15.016 64.3934 16.032 64.3934 17.168C64.3934 18.352 64.1054 19.4 63.5294 20.312C62.9534 21.224 62.1374 21.944 61.0814 22.472C60.0414 22.984 58.8174 23.24 57.4094 23.24ZM57.6494 20.816C58.3694 20.816 59.0014 20.664 59.5454 20.36C60.1054 20.04 60.5374 19.608 60.8414 19.064C61.1614 18.52 61.3214 17.912 61.3214 17.24C61.3214 16.568 61.1614 15.984 60.8414 15.488C60.5374 14.976 60.1054 14.568 59.5454 14.264C59.0014 13.96 58.3534 13.808 57.6014 13.808C56.8814 13.808 56.2334 13.952 55.6574 14.24C55.0974 14.528 54.6574 14.928 54.3374 15.44C54.0334 15.936 53.8814 16.512 53.8814 17.168C53.8814 17.84 54.0414 18.456 54.3614 19.016C54.6814 19.576 55.1214 20.016 55.6814 20.336C56.2574 20.656 56.9134 20.816 57.6494 20.816ZM75.9133 20.456L75.2653 21.176V10.184H78.2653V21.176L77.5453 20.456H83.8813L83.1853 21.176V10.184H86.1853V23H67.2973V10.184H70.2973V21.176L69.6013 20.456H75.9133ZM85.2253 25.64V22.256L85.9213 23H83.0893V20.456H88.0333V25.64H85.2253ZM90.2191 23V10.184H93.2191V18.632L100.299 10.184H103.035V23H100.035V14.552L92.9791 23H90.2191ZM113.047 23.168C111.623 23.168 110.375 22.888 109.303 22.328C108.247 21.752 107.423 20.968 106.831 19.976C106.255 18.984 105.967 17.856 105.967 16.592C105.967 15.312 106.247 14.184 106.807 13.208C107.383 12.216 108.167 11.44 109.159 10.88C110.167 10.32 111.311 10.04 112.591 10.04C113.839 10.04 114.951 10.312 115.927 10.856C116.903 11.4 117.671 12.168 118.231 13.16C118.791 14.152 119.071 15.32 119.071 16.664C119.071 16.792 119.063 16.936 119.047 17.096C119.047 17.256 119.039 17.408 119.023 17.552H108.343V15.56H117.439L116.263 16.184C116.279 15.448 116.127 14.8 115.807 14.24C115.487 13.68 115.047 13.24 114.487 12.92C113.943 12.6 113.311 12.44 112.591 12.44C111.855 12.44 111.207 12.6 110.647 12.92C110.103 13.24 109.671 13.688 109.351 14.264C109.047 14.824 108.895 15.488 108.895 16.256V16.736C108.895 17.504 109.071 18.184 109.423 18.776C109.775 19.368 110.271 19.824 110.911 20.144C111.551 20.464 112.287 20.624 113.119 20.624C113.839 20.624 114.487 20.512 115.063 20.288C115.639 20.064 116.151 19.712 116.599 19.232L118.207 21.08C117.631 21.752 116.903 22.272 116.023 22.64C115.159 22.992 114.167 23.168 113.047 23.168Z" fill="white"/>
<path d="M2 25.8069C2 25.8069 0 25.8069 0 23.9064C0 22.0058 2 16.3041 12 16.3041C22 16.3041 24 22.0058 24 23.9064C24 25.8069 22 25.8069 22 25.8069H2ZM12 14.4035C13.5913 14.4035 15.1174 13.8028 16.2426 12.7335C17.3679 11.6642 18 10.2139 18 8.70174C18 7.18954 17.3679 5.73928 16.2426 4.67C15.1174 3.60072 13.5913 3 12 3C10.4087 3 8.88258 3.60072 7.75736 4.67C6.63214 5.73928 6 7.18954 6 8.70174C6 10.2139 6.63214 11.6642 7.75736 12.7335C8.88258 13.8028 10.4087 14.4035 12 14.4035Z" fill="white"/>
</svg>
