<svg width="21" height="22" viewBox="0 0 21 22" fill="none" xmlns="http://www.w3.org/2000/svg">
<path d="M1.05078 3.65039H17.8508V5.75039H1.05078V3.65039ZM1.05078 9.95039H12.6008V12.0504H1.05078V9.95039ZM1.05078 16.2504H8.40078V18.3504H1.05078V16.2504ZM19.7408 12.9954L20.7908 11.8404C20.8941 11.7249 20.9512 11.5754 20.9512 11.4204C20.9512 11.2654 20.8941 11.1159 20.7908 11.0004L18.9008 9.11039C18.7853 9.00708 18.6357 8.94996 18.4808 8.94996C18.3258 8.94996 18.1763 9.00708 18.0608 9.11039L17.0108 10.1604L19.7408 12.9954ZM16.2758 10.8954L10.5008 16.5654V19.4004H13.2308L19.1108 13.6254L16.2758 10.7904V10.8954Z" fill="white"/>
</svg>
