<svg width="24" height="23" viewBox="0 0 24 23" fill="none" xmlns="http://www.w3.org/2000/svg">
<path d="M2 22.8069C2 22.8069 0 22.8069 0 20.9064C0 19.0058 2 13.3041 12 13.3041C22 13.3041 24 19.0058 24 20.9064C24 22.8069 22 22.8069 22 22.8069H2ZM12 11.4035C13.5913 11.4035 15.1174 10.8028 16.2426 9.73347C17.3679 8.66419 18 7.21393 18 5.70174C18 4.18954 17.3679 2.73928 16.2426 1.67C15.1174 0.600717 13.5913 0 12 0C10.4087 0 8.88258 0.600717 7.75736 1.67C6.63214 2.73928 6 4.18954 6 5.70174C6 7.21393 6.63214 8.66419 7.75736 9.73347C8.88258 10.8028 10.4087 11.4035 12 11.4035Z" fill="white"/>
</svg>
