<svg width="27" height="22" viewBox="0 0 27 22" fill="none" xmlns="http://www.w3.org/2000/svg">
<g clip-path="url(#clip0_573_4687)">
<path d="M22.0359 9.86755C22.0359 9.86755 22.3922 11.5728 22.4719 11.9304H20.9062C21.0609 11.5224 21.6562 9.93632 21.6562 9.93632C21.6469 9.95007 21.8109 9.51916 21.9047 9.25329L22.0359 9.86755ZM27 2.93181V19.0678C27 20.2826 25.9922 21.2682 24.75 21.2682H2.25C1.00781 21.2682 0 20.2826 0 19.0678V2.93181C0 1.71703 1.00781 0.731445 2.25 0.731445H24.75C25.9922 0.731445 27 1.71703 27 2.93181ZM7.14844 14.4471L10.1109 7.33255H8.11875L6.27656 12.1917L6.075 11.2061L5.41875 7.93306C5.31094 7.47924 4.97813 7.35088 4.56563 7.33255H1.53281L1.5 7.47466C2.24062 7.65802 2.90156 7.9239 3.47812 8.25854L5.15625 14.4471H7.14844ZM11.5734 14.4562L12.7547 7.33255H10.8703L9.69375 14.4562H11.5734ZM18.1312 12.1275C18.1406 11.3161 17.6344 10.6973 16.5516 10.1884C15.8906 9.86297 15.4875 9.64293 15.4875 9.3083C15.4969 9.00574 15.8297 8.69403 16.5703 8.69403C17.1844 8.68027 17.6344 8.82238 17.9719 8.96449L18.1406 9.04242L18.3984 7.50216C18.0281 7.36005 17.4375 7.19961 16.7109 7.19961C14.85 7.19961 13.5422 8.17144 13.5328 9.55584C13.5188 10.5781 14.4703 11.1465 15.1828 11.4903C15.9094 11.8387 16.1578 12.0679 16.1578 12.3751C16.1484 12.8518 15.5672 13.0718 15.0281 13.0718C14.2781 13.0718 13.875 12.9572 13.2609 12.6914L13.0125 12.5768L12.75 14.1766C13.1906 14.3737 14.0062 14.5479 14.85 14.5571C16.8281 14.5617 18.1172 13.6036 18.1312 12.1275ZM24.75 14.4562L23.2313 7.33255H21.7734C21.3234 7.33255 20.9813 7.4609 20.7891 7.9239L17.9906 14.4562H19.9688C19.9688 14.4562 20.2922 13.5761 20.3625 13.3881H22.7812C22.8375 13.6403 23.0062 14.4562 23.0062 14.4562H24.75Z" fill="white"/>
</g>
<defs>
<clipPath id="clip0_573_4687">
<rect width="27" height="21" fill="white" transform="translate(0 0.5)"/>
</clipPath>
</defs>
</svg>
